<?xml version="1.0" encoding="UTF-8" standalone="no"?>
<!-- Created with Inkscape (http://www.inkscape.org/) -->

<svg
   width="73.018532mm"
   height="38.197838mm"
   viewBox="0 0 73.01853 38.197838"
   version="1.1"
   id="svg1"
   xml:space="preserve"
   inkscape:version="1.3.1 (9b9bdc1480, 2023-11-25, custom)"
   sodipodi:docname="logo white.svg"
   xmlns:inkscape="http://www.inkscape.org/namespaces/inkscape"
   xmlns:sodipodi="http://sodipodi.sourceforge.net/DTD/sodipodi-0.dtd"
   xmlns="http://www.w3.org/2000/svg"
   xmlns:svg="http://www.w3.org/2000/svg"><sodipodi:namedview
     id="namedview1"
     pagecolor="#a8a8a8"
     bordercolor="#000000"
     borderopacity="0.25"
     inkscape:showpageshadow="2"
     inkscape:pageopacity="0.0"
     inkscape:pagecheckerboard="0"
     inkscape:deskcolor="#d1d1d1"
     inkscape:document-units="mm"
     inkscape:zoom="1.4396184"
     inkscape:cx="63.558509"
     inkscape:cy="-4.8623996"
     inkscape:window-width="1854"
     inkscape:window-height="1011"
     inkscape:window-x="66"
     inkscape:window-y="32"
     inkscape:window-maximized="1"
     inkscape:current-layer="layer1" /><defs
     id="defs1"><inkscape:path-effect
       effect="fillet_chamfer"
       id="path-effect34"
       is_visible="true"
       lpeversion="1"
       nodesatellites_param="F,0,0,1,0,0.79375,0,1 @ F,0,0,1,0,0.79375,0,1 @ F,0,0,1,0,0.79375,0,1 @ F,0,0,1,0,0.79375,0,1 @ F,0,0,1,0,0.79375,0,1 @ F,0,0,1,0,0.79375,0,1 @ F,0,0,1,0,0.79375,0,1 @ F,0,0,1,0,0.79375,0,1 @ F,0,0,1,0,0.79375,0,1 @ F,0,0,1,0,0.79375,0,1 @ F,0,0,1,0,0.79375,0,1 @ F,0,0,1,0,0.79375,0,1 @ F,0,0,1,0,0.79375,0,1 @ F,0,0,1,0,0.79375,0,1 @ F,0,0,1,0,0.79375,0,1 @ F,0,0,1,0,0.79375,0,1 @ F,0,0,1,0,0.79375,0,1 @ F,0,0,1,0,0.79375,0,1"
       radius="3"
       unit="px"
       method="auto"
       mode="F"
       chamfer_steps="1"
       flexible="false"
       use_knot_distance="true"
       apply_no_radius="true"
       apply_with_radius="true"
       only_selected="false"
       hide_knots="false" /><inkscape:path-effect
       effect="fillet_chamfer"
       id="path-effect33"
       is_visible="true"
       lpeversion="1"
       nodesatellites_param="F,0,0,1,0,0.79375,0,1 @ F,0,0,1,0,0.79375,0,1 @ F,0,0,1,0,0.79375,0,1"
       radius="3"
       unit="px"
       method="auto"
       mode="F"
       chamfer_steps="1"
       flexible="false"
       use_knot_distance="true"
       apply_no_radius="true"
       apply_with_radius="true"
       only_selected="false"
       hide_knots="false" /><inkscape:path-effect
       effect="fillet_chamfer"
       id="path-effect32"
       is_visible="true"
       lpeversion="1"
       nodesatellites_param="F,0,0,1,0,0.79375,0,1 @ F,0,0,1,0,0.79375,0,1 @ F,0,0,1,0,0.79375,0,1"
       radius="3"
       unit="px"
       method="auto"
       mode="F"
       chamfer_steps="1"
       flexible="false"
       use_knot_distance="true"
       apply_no_radius="true"
       apply_with_radius="true"
       only_selected="false"
       hide_knots="false" /><inkscape:path-effect
       effect="fillet_chamfer"
       id="path-effect30"
       is_visible="true"
       lpeversion="1"
       nodesatellites_param="F,0,0,1,0,0.79375,0,1 @ F,0,0,1,0,0.79375,0,1 @ F,0,0,1,0,0.79375,0,1"
       radius="3"
       unit="px"
       method="auto"
       mode="F"
       chamfer_steps="1"
       flexible="false"
       use_knot_distance="true"
       apply_no_radius="true"
       apply_with_radius="true"
       only_selected="false"
       hide_knots="false" /><inkscape:path-effect
       effect="fillet_chamfer"
       id="path-effect29"
       is_visible="true"
       lpeversion="1"
       nodesatellites_param="F,0,0,1,0,0,0,1 @ F,0,0,1,0,0,0,1 @ F,0,0,1,0,1.8911401,0,1 @ F,0,0,1,0,0,0,1"
       radius="0"
       unit="px"
       method="auto"
       mode="F"
       chamfer_steps="1"
       flexible="false"
       use_knot_distance="true"
       apply_no_radius="true"
       apply_with_radius="true"
       only_selected="false"
       hide_knots="false" /><inkscape:path-effect
       effect="fillet_chamfer"
       id="path-effect28"
       is_visible="true"
       lpeversion="1"
       nodesatellites_param="F,0,0,1,0,0.79375,0,1 @ F,0,0,1,0,0.79375,0,1 @ F,0,0,1,0,0.79375,0,1 @ F,0,0,1,0,0.79375,0,1 @ F,0,0,1,0,0.79375,0,1"
       radius="0"
       unit="px"
       method="auto"
       mode="F"
       chamfer_steps="1"
       flexible="false"
       use_knot_distance="true"
       apply_no_radius="true"
       apply_with_radius="true"
       only_selected="false"
       hide_knots="false" /><inkscape:path-effect
       effect="fillet_chamfer"
       id="path-effect26"
       is_visible="true"
       lpeversion="1"
       nodesatellites_param="F,0,0,1,0,0.79375,0,1 @ F,0,0,1,0,0.79375,0,1 @ F,0,0,1,0,0.79375,0,1 @ F,0,0,1,0,0.79375,0,1 @ F,0,0,1,0,0.79375,0,1 @ F,0,0,1,0,0.79375,0,1 @ F,0,0,1,0,0.79375,0,1 @ F,0,0,1,0,0.79375,0,1"
       radius="3"
       unit="px"
       method="auto"
       mode="F"
       chamfer_steps="1"
       flexible="false"
       use_knot_distance="true"
       apply_no_radius="true"
       apply_with_radius="true"
       only_selected="false"
       hide_knots="false" /><inkscape:path-effect
       effect="fillet_chamfer"
       id="path-effect25"
       is_visible="true"
       lpeversion="1"
       nodesatellites_param="F,0,0,1,0,0.79375,0,1 @ F,0,0,1,0,0.79375,0,1 @ F,0,0,1,0,0.79375,0,1 @ F,0,0,1,0,0.79375,0,1 @ F,0,0,1,0,0.79375,0,1"
       radius="3"
       unit="px"
       method="auto"
       mode="F"
       chamfer_steps="1"
       flexible="false"
       use_knot_distance="true"
       apply_no_radius="true"
       apply_with_radius="true"
       only_selected="false"
       hide_knots="false" /><inkscape:path-effect
       effect="fillet_chamfer"
       id="path-effect24"
       is_visible="true"
       lpeversion="1"
       nodesatellites_param="F,0,0,1,0,0.79375,0,1 @ F,0,0,1,0,0.79375,0,1 @ F,0,0,1,0,0.79375,0,1 @ F,0,0,1,0,0.79375,0,1 @ F,0,0,1,0,0.79375,0,1 @ F,0,0,1,0,0.79375,0,1 @ F,0,0,1,0,0.79375,0,1"
       radius="3"
       unit="px"
       method="auto"
       mode="F"
       chamfer_steps="1"
       flexible="false"
       use_knot_distance="true"
       apply_no_radius="true"
       apply_with_radius="true"
       only_selected="false"
       hide_knots="false" /><inkscape:path-effect
       effect="fillet_chamfer"
       id="path-effect22"
       is_visible="true"
       lpeversion="1"
       nodesatellites_param="F,0,0,1,0,2.38125,0,1 @ F,0,0,1,0,2.38125,0,1 @ F,0,0,1,0,2.38125,0,1 @ F,0,0,1,0,2.38125,0,1 @ F,0,0,1,0,2.38125,0,1 @ F,0,0,1,0,2.38125,0,1 @ F,0,0,1,0,2.38125,0,1 @ F,0,0,1,0,2.38125,0,1"
       radius="9"
       unit="px"
       method="auto"
       mode="F"
       chamfer_steps="1"
       flexible="false"
       use_knot_distance="true"
       apply_no_radius="true"
       apply_with_radius="true"
       only_selected="false"
       hide_knots="false" /><inkscape:path-effect
       effect="fillet_chamfer"
       id="path-effect16"
       is_visible="true"
       lpeversion="1"
       nodesatellites_param="F,0,0,1,0,0.79375,0,1 @ F,0,0,1,0,0.79375,0,1 @ F,0,0,1,0,0.79375,0,1"
       radius="3"
       unit="px"
       method="auto"
       mode="F"
       chamfer_steps="1"
       flexible="false"
       use_knot_distance="true"
       apply_no_radius="true"
       apply_with_radius="true"
       only_selected="false"
       hide_knots="false" /><inkscape:path-effect
       effect="fillet_chamfer"
       id="path-effect15"
       is_visible="true"
       lpeversion="1"
       nodesatellites_param="F,0,0,1,0,0.79375,0,1 @ F,0,0,1,0,0.79375,0,1 @ F,0,0,1,0,0.79375,0,1"
       radius="3"
       unit="px"
       method="auto"
       mode="F"
       chamfer_steps="1"
       flexible="false"
       use_knot_distance="true"
       apply_no_radius="true"
       apply_with_radius="true"
       only_selected="false"
       hide_knots="false" /><inkscape:path-effect
       effect="fillet_chamfer"
       id="path-effect14"
       is_visible="true"
       lpeversion="1"
       nodesatellites_param="F,0,0,1,0,0.79375,0,1 @ F,0,0,1,0,0.79375,0,1 @ F,0,0,1,0,0.79375,0,1 @ F,0,0,1,0,0.79375,0,1"
       radius="3"
       unit="px"
       method="auto"
       mode="F"
       chamfer_steps="1"
       flexible="false"
       use_knot_distance="true"
       apply_no_radius="true"
       apply_with_radius="true"
       only_selected="false"
       hide_knots="false" /></defs><g
     inkscape:label="Capa 1"
     inkscape:groupmode="layer"
     id="layer1"
     transform="translate(-61.589061,-36.505222)"><path
       id="rect14"
       style="fill:#ffffff;fill-opacity:1;stroke-width:3;stroke-linecap:round;stroke-linejoin:round"
       d="m 93.847934,173.59981 c 0.446072,1.44678 1.920654,4.54058 6.548656,5.87435 0.42069,0.12124 1.123,0.19785 1.56138,0.19785 h 28.77912 c 0.43838,0 1.14111,-0.0767 1.56227,-0.19811 4.62824,-1.33418 6.10232,-4.42867 6.54804,-5.87498 0.12883,-0.41804 -0.17368,-0.77094 -0.61206,-0.77094 l -43.775619,0 c -0.438376,0 -0.740823,0.35331 -0.611787,0.77183 z"
       sodipodi:nodetypes="ccccc"
       inkscape:path-effect="#path-effect14"
       inkscape:original-d="m 93.665971,172.82798 c 0,0 0.632721,5.27438 7.498249,6.84403 h 30.36662 c 6.86552,-1.56965 7.49825,-6.84403 7.49825,-6.84403 z"
       transform="translate(-19.051585,-104.96895)" /><path
       id="rect15"
       style="fill:#ffffff;fill-opacity:1;stroke:none;stroke-width:3;stroke-linecap:round;stroke-linejoin:round;stroke-opacity:1"
       d="m 104.47267,164.66413 c 2.51402,2.15181 5.58199,3.75821 6.94993,4.42302 0.39377,0.19136 0.36249,0.33629 -0.0759,0.33629 h -10.94256 c -0.438379,0 -0.775917,-0.35798 -0.671299,-0.78299 0.254229,-1.03277 1.035339,-2.86993 3.433179,-4.15892 0.38574,-0.20736 0.97362,-0.10244 1.30664,0.1826 z"
       sodipodi:nodetypes="cccc"
       inkscape:path-effect="#path-effect15"
       inkscape:original-d="m 103.8799,164.13632 c 3.39974,3.15434 8.26056,5.28712 8.26056,5.28712 H 99.610397 c 0,0 0.05577,-3.45935 4.269503,-5.28712 z"
       transform="translate(-18.987685,-104.93646)" /><path
       id="path15"
       style="fill:#ffffff;fill-opacity:1;stroke:none;stroke-width:3.00001;stroke-linecap:round;stroke-linejoin:round;stroke-opacity:1"
       d="m 128.90764,164.80353 c -1.70547,2.05135 -3.94938,3.49454 -5.06717,4.1394 -0.37882,0.21854 -0.33994,0.37896 0.0984,0.37896 h 8.66372 c 0.43838,0 0.75733,-0.35574 0.64298,-0.77848 -0.27685,-1.02344 -1.04575,-2.82978 -3.13977,-4.01276 -0.38126,-0.21538 -0.918,-0.0642 -1.1982,0.27288 z"
       sodipodi:nodetypes="cccc"
       inkscape:path-effect="#path-effect16"
       inkscape:original-d="m 129.39581,164.17782 c -2.35036,3.22182 -6.25065,5.14407 -6.25065,5.14407 h 10.25122 c 0,0 -0.26356,-3.52092 -4.00057,-5.14407 z"
       transform="translate(-18.987685,-104.93646)" /><path
       id="path16"
       style="fill:#ffffff;fill-opacity:1;stroke:none;stroke-width:3;stroke-linecap:round;stroke-linejoin:round"
       d="m 88.235231,55.07548 a 7.9087418,3.3019433 26.969534 0 0 -2.854089,1.225761 7.9087418,3.3019433 26.969534 0 0 6.038906,6.556195 7.9087418,3.3019433 26.969534 0 0 8.208797,0.263029 7.9087418,3.3019433 26.969534 0 0 -6.038392,-6.555674 7.9087418,3.3019433 26.969534 0 0 -5.355222,-1.489311 z m -0.605114,1.79525 c 0.01278,-4.91e-4 0.02546,-3.72e-4 0.0383,4.87e-4 0.408638,0.02736 0.497704,0.785062 0.915714,1.262456 0.208995,0.238697 1.257565,0.777355 0.956529,1.26091 -0.147046,0.236208 -0.851885,0.08597 -1.669681,-0.749806 -1.035254,-1.058075 -0.638161,-1.756325 -0.240806,-1.774044 z m 4.903056,1.22731 a 1.2864987,0.57631327 31.817944 0 1 0.842847,0.26872 1.2864987,0.57631327 31.817944 0 1 0.950845,1.181839 1.2864987,0.57631327 31.817944 0 1 -1.292429,-0.04754 1.2864987,0.57631327 31.817944 0 1 -0.950844,-1.181841 1.2864987,0.57631327 31.817944 0 1 0.449581,-0.221178 z m 2.75487,2.766242 a 1.0346316,0.55349334 28.01005 0 1 0.839222,0.267168 1.0346316,0.55349334 28.01005 0 1 0.495583,0.96687 1.0346316,0.55349334 28.01005 0 1 -1.247983,-0.12351 1.0346316,0.55349334 28.01005 0 1 -0.496099,-0.966864 1.0346316,0.55349334 28.01005 0 1 0.409277,-0.143664 z" /><path
       id="ellipse16"
       style="fill:#ffffff;fill-opacity:1;stroke:none;stroke-width:2.99999;stroke-linecap:round;stroke-linejoin:round"
       d="m 107.16482,54.901842 c -0.12848,0.0016 -0.24909,0.0064 -0.35347,0.01447 -1.40538,0.108137 -3.11158,0.625464 -4.82503,1.465024 -0.39167,0.191862 -1.01671,0.531149 -1.39466,0.757797 -0.628268,0.375698 -1.229948,0.783485 -1.78955,1.21233 -0.354472,0.27163 -0.347158,0.687579 -0.03204,0.960142 0.816042,0.705854 1.35737,1.600926 1.55339,2.566254 0.0889,0.437802 0.0883,1.189069 -0.008,1.640727 -0.0465,0.218408 -0.11108,0.433844 -0.19275,0.644918 -0.167077,0.431896 -0.038,0.674809 0.37259,0.556042 0.86668,-0.250733 1.77371,-0.604713 2.6758,-1.044892 0.39194,-0.191211 1.01735,-0.529457 1.39578,-0.755013 3.11443,-1.852049 5.27585,-4.29945 5.40328,-6.03581 0.0333,-0.4537 -0.244,-1.152538 -0.56122,-1.415932 -0.275,-0.228347 -0.6453,-0.391906 -1.09967,-0.484207 -0.30257,-0.06146 -0.75916,-0.08642 -1.14463,-0.08165 z m 0.21394,1.503273 a 0.55349334,1.0346316 68.29466 0 1 0.55759,0.328145 0.55349334,1.0346316 68.29466 0 1 -0.90124,0.872298 0.55349334,1.0346316 68.29466 0 1 -1.05833,-0.2465 0.55349334,1.0346316 68.29466 0 1 0.90175,-0.872295 0.55349334,1.0346316 68.29466 0 1 0.50023,-0.08165 z m -4.31705,1.096054 a 0.57631326,1.2864988 65.679981 0 1 0.46354,0.157098 0.57631326,1.2864988 65.679981 0 1 -0.75964,1.046966 0.57631326,1.2864988 65.679981 0 1 -1.51154,0.130744 0.57631326,1.2864988 65.679981 0 1 0.75965,-1.046966 0.57631326,1.2864988 65.679981 0 1 1.04799,-0.287842 z m 1.96991,2.064987 c 0.0776,8.79e-4 0.15126,0.02611 0.21911,0.08372 0.21212,0.18009 -0.0394,0.85503 -0.98599,1.54151 -1.23705,0.897065 -1.87087,0.340777 -1.78387,-0.05943 0.0869,-0.40022 0.84937,-0.377376 1.38285,-0.720914 0.22507,-0.144959 0.74895,-0.849638 1.16789,-0.844917 z" /><g
       id="g3"
       transform="translate(-0.23475373,1.5432115)"><circle
         style="fill:#ffffff;fill-opacity:1;stroke:none;stroke-width:3;stroke-linecap:round;stroke-linejoin:round"
         id="circle35"
         cx="97.892517"
         cy="51.642727"
         r="4.2058301" /><path
         style="fill:none;fill-opacity:0.597941;stroke:#ffffff;stroke-width:1;stroke-linecap:round;stroke-linejoin:round;stroke-dasharray:none;stroke-opacity:1"
         d="M 97.827621,48.08308 V 44.3752 c 0,-2.30697 1.93446,-3.70789 1.93446,-3.70789"
         id="path35"
         sodipodi:nodetypes="ccc" /><path
         id="rect36"
         style="fill:#ffffff;fill-opacity:1;stroke-linecap:round;stroke-linejoin:round"
         d="m 101.76193,40.75524 c 2.71675,-1.76156 5.56314,-0.81458 5.56314,-0.81458 0,0 -0.24225,2.57207 -2.83946,4.08656 -2.59721,1.51449 -5.421419,0.82588 -5.421419,0.82588 0,0 -0.019,-2.3363 2.697739,-4.09786 z"
         sodipodi:nodetypes="zczcz" /></g><g
       id="g2"
       transform="translate(0,17.507044)"><circle
         style="fill:#ffffff;fill-opacity:1;stroke:none;stroke-width:3;stroke-linecap:round;stroke-linejoin:round"
         id="path24"
         cx="66.287422"
         cy="52.497654"
         r="4.6983614" /><path
         style="fill:none;fill-opacity:0.597941;stroke:#ffffff;stroke-width:1;stroke-linecap:round;stroke-linejoin:round;stroke-dasharray:none;stroke-opacity:1"
         d="m 66.953936,42.27532 c 0,-3.19486 -2.524659,-2.87321 -2.524659,-4.63152 0,-1.75831 2.524659,-1.61298 2.524659,-4.63151"
         id="path37"
         sodipodi:nodetypes="czc" /></g><g
       id="g1"
       transform="translate(0,11.818802)"><path
         id="rect25"
         style="fill:#ffffff;fill-opacity:1;stroke:none;stroke-width:3;stroke-linecap:round;stroke-linejoin:round"
         d="m 140.26741,151.94163 v 11.81685 a 0.79375,0.79375 135 0 1 -0.79375,0.79375 l -2.04742,0 a 0.79375,0.79375 135 0 0 -0.79375,0.79375 0.66993196,0.66993196 33.091939 0 0 0.79375,0.51728 h 6.9944 a 0.79375,0.79375 135 0 0 0.79375,-0.79375 0.66993196,0.66993196 33.091939 0 0 -0.79375,-0.51728 h -2.04793 a 0.79375,0.79375 45 0 1 -0.79375,-0.79375 v -11.81685 a 0.79375,0.79375 45 0 0 -0.79375,-0.79375 0.67013279,0.67013279 123.11828 0 0 -0.5178,0.79375 z"
         inkscape:path-effect="#path-effect26"
         inkscape:original-d="m 140.26741,151.14788 v 13.40435 h -3.63492 v 1.31103 h 8.5819 v -1.31103 h -3.63543 v -13.40435 z"
         transform="translate(-12.517536,-102.99342)" /><path
         id="circle25"
         style="fill:#ffffff;fill-opacity:1;stroke:none;stroke-width:3;stroke-linecap:round;stroke-linejoin:round"
         d="m 134.84352,148.6126 c 0.31764,4.82064 3.54016,5.8538 5.40776,6.04945 0.4358,0.0456 1.14881,0.0456 1.5846,0 1.8676,-0.19564 5.09014,-1.2288 5.40778,-6.04943 0.0288,-0.43736 -0.32998,-0.79322 -0.76836,-0.79322 h -10.86342 c -0.43838,0 -0.79718,0.35585 -0.76836,0.7932 z"
         sodipodi:nodetypes="cscc"
         inkscape:path-effect="#path-effect30"
         inkscape:original-d="m 134.81813,147.8194 c 0,6.36215 4.63482,6.88434 6.22546,6.88434 1.59064,0 6.22546,-0.52219 6.22546,-6.88434 z"
         transform="translate(-12.637685,-102.99342)" /><path
         id="path38"
         style="fill:none;fill-opacity:0.597941;stroke:#ffffff;stroke-width:1;stroke-linecap:round;stroke-linejoin:round;stroke-dasharray:none;stroke-opacity:1"
         d="m 129.67563,25.18642 c 0,3.01852 -2.52491,2.87293 -2.52491,4.63124 0,1.65368 2.23278,1.46868 2.49855,4.09846 -0.26589,2.50139 -1.95267,1.59404 -1.95267,4.12584"
         sodipodi:nodetypes="cscc" /></g></g></svg>
